Patient4_TMGait_0pt3_02_right_04_EMG.mot
version=1
nRows=30
nColumns=33
inDegrees=no
endheader
time	1LAddLong	2LGlutMax	3LGlutMed	4LIliopsoas	5LSemiMemb	6LBicFemLong	7LRecFem	8LVastMed	9LVastLat	10LGasMed	11LTibAnt	12lTibPost	13LPeroneusLong	14LSol	15LExtDigLong	16LFlexDigLong	17RAddLong	18RGlutMax	19RGlutMed	20RIliopsoas	21RSemiMemb	22RBicFemLong	23RRecFem	24RVastMed	25RVastLat	26RGasMed	27RTibAnt	28RTibPost	29RPeroneusLong	30RSol	31RExtDigLong	32RFlexDigLong
7.665	0.011292	0.033875	-0.02182	0.015564	0.039978	0.019836	0.044556	-0.002289	-0.027924	-0.015564	0.10452	0.005493	0.021667	-0.005493	0.022888	0.010834	0.016022	-0.050659	0.20142	-0.044098	-0.022125	0.014496	0.015106	-0.1239	-0.13596	0.026703	0.1471	-0.013275	0.31754	0.11047	0.001373	-0.023956
7.666	-0.002594	0.029755	0.054626	0.001373	0.044403	-0.003052	0.012665	0.005951	-0.018921	-0.002594	-0.019379	-0.001678	-0.041962	0.052948	0.15366	0.006104	0.030975	-0.033112	0.30579	-0.038452	-0.11734	0.044403	-0.090942	-0.18906	-0.16144	0.018921	0.1535	-0.008545	-0.11917	-0.092773	0.000458	-0.016022
7.667	-0.012207	0.01709	0.030823	0.008087	0.014954	0.019073	0.054626	0.011597	-0.026703	-0.007935	-0.1268	-0.001984	0.00412	0.088043	0.067139	0.007629	0.018768	-0.015717	-0.051727	0.056458	0.056	0.037689	-0.42816	-0.16098	-0.1387	0.011597	0.22675	-0.01236	-0.25513	-0.11643	-0.002747	-0.019379
7.668	-0.014801	0.024261	0.011444	0.003967	-0.041351	0.027008	0.090637	0.009613	-0.023956	-0.013123	-0.1532	0.002289	0.005798	0.011444	-0.031128	0.012665	0.030365	0.005035	-0.13657	0.066681	0.11536	0.014954	-0.2655	-0.13901	-0.14313	0.012665	0.24399	-0.001526	0.24887	-0.21729	0.000916	-0.010681
7.669	-0.010834	-0.029755	0.019989	0.006714	-0.076599	0.052338	0.099487	0.011444	-0.016174	-0.003052	-0.08606	0.010376	-0.026093	-0.021057	-0.056458	0.011139	0.049286	-0.008392	0.036774	-0.014343	0.099182	0.057678	-0.086212	-0.13641	-0.12695	0.019226	0.13001	-0.001678	0.30838	-0.33081	0.001984	-0.007782
7.67	-0.016479	-0.043488	-0.003357	0.00473	-0.089264	0.089874	0.099182	0.015869	-0.02655	-0.016479	-0.046234	0.002747	0.053406	-0.036316	0.006256	0.00946	0.030518	-0.046387	0.17868	-0.06897	-0.075684	0.075378	-0.10208	0.061646	0.009613	0.014954	-0.26428	-0.00885	0.14099	-0.33905	-0.000763	-0.005188
7.671	-0.024719	0	-0.023193	0.008545	-0.041656	0.10834	0.068512	0.012512	-0.012665	0.003052	-0.034637	0.009003	0.043182	-0.046844	0.085449	-0.002747	-0.022278	-0.015869	0.28717	-0.036316	-0.20325	0.09079	-0.31509	0.17273	0.12878	0.01358	-0.13046	-0.00824	-0.058899	-0.32654	-0.00061	-0.009308
7.672	-0.015717	0.00473	-0.026398	0.00946	-0.048828	0.072479	0.077515	0.010834	-0.001984	0.001678	-0.035553	0.003204	0.01297	-0.066986	0.065918	0.003204	0.009918	-0.03067	0.074615	-0.009003	-0.10468	-0.03067	-0.24262	0.04425	0.12268	0.001221	0.024414	-0.010681	-0.11551	-0.12131	0.000153	-0.008392
7.673	-0.010223	-0.006104	-0.023346	0.001221	-0.085144	0.0177	0.055084	0.016479	-0.014648	0.006409	-0.012665	0.005035	0.000916	-0.033722	-0.016479	0.008087	0.018616	0.027161	-0.21683	0.096588	0.088501	-0.06485	-0.17731	0.03418	0.09079	-0.00946	0.002747	-0.011444	-0.13321	-0.071869	-0.000916	-0.008698
7.674	-0.005951	0.037384	-0.003967	-0.002441	0.014038	-0.051422	-0.009613	0.01297	-0.030365	0.007629	-0.020905	0.006104	-0.014648	-0.019226	-0.075073	0.010071	0.004272	0.096436	-0.20737	0.083771	0.052795	-0.01297	-0.18127	0.018616	0.039215	-0.017548	-0.090332	-0.010529	-0.022736	-0.016022	-0.001984	-0.017548
7.675	0.00473	0.033112	-0.004272	-0.006409	0.041809	-0.041809	-0.06485	0.008698	-0.019073	0.00885	0.014648	0.002899	-0.024109	-0.05127	-0.11047	0.016327	0.003662	0.039978	-0.022583	0.022583	0.027313	0.011902	-0.17166	0.012512	0.059052	-0.009308	-0.041199	-0.007019	0.027924	-0.022583	0.000305	-0.011902
7.676	0.017395	0.058899	0.004883	0.010376	0.024719	0.005951	-0.072174	0.001373	0.036316	-0.000916	0.02182	0.008087	0.020599	-0.050659	-0.11749	0.018158	0.000916	-0.011139	-0.002899	-0.054932	0.023346	0.024109	-0.18021	0.069122	0.10574	-0.016174	0.028839	-0.011292	-0.17014	-0.010071	-0.000153	-0.017548
7.677	0.01358	0.024567	-0.003662	0.013885	0.018921	0.04776	-0.079956	0.003662	0.056915	-0.005493	-0.051422	0.005188	-0.029144	-0.020294	-0.073395	0.00885	-0.000305	-0.006409	0	-0.080719	0.033417	0.00824	-0.13733	0.023193	0.089874	-0.023193	0.14343	-0.005188	-0.11627	0.061493	0.002747	-0.02243
7.678	0.0177	0.024872	-0.020599	0.016022	0.018463	0.055237	-0.03418	0.002441	0.057831	0.004883	-0.084534	0.008545	-0.022888	-0.007629	0.094757	0.016632	0.009003	0.023041	0.023041	-0.047302	0.015411	0.034637	-0.16174	0.011749	0.077515	-0.026245	0.43686	-0.013275	0.51636	0.043335	-0.00061	-0.019836
7.679	0.013275	0.048218	-0.029602	0.01358	0.068054	0.064087	-0.010071	-0.003052	0.040283	-0.001373	0.016785	0.003967	-0.028076	0.00824	0.38284	0.037537	0.014954	0.027313	0.41321	-0.093842	0.009155	0.043182	-0.065002	-0.030212	-0.011902	-0.0177	0.98587	-0.004578	0.78095	-0.14893	-0.000916	-0.020905
7.68	0.00351	0.034332	-0.042114	-0.007782	0.06073	0.040283	-0.018616	0.003815	0.034485	-0.020447	0.06958	0.003052	0.007324	0.049133	-0.10468	0.024109	0.016327	0.026855	0.10834	-0.02243	0.009918	0.076141	-0.08316	0.013275	0.028687	-0.013428	1.2424	-0.006104	0.61752	-0.16174	-0.008087	-0.019836
7.681	0.000916	0.059052	0.004272	-0.003662	0.025482	0.045166	-0.070953	0.011902	0.042267	-0.016785	0.22354	0.004578	0.040436	0.078735	-0.15091	0.028687	0.012207	0.026703	0.1712	0.041656	0.025024	0.10376	-0.10895	0.10468	0.04837	-0.006714	1.0489	-0.003204	-0.32272	-0.14694	0.000763	-0.016022
7.682	-0.004425	0.016937	-0.019226	-0.000916	0.060883	0.017395	-0.068207	0.006409	0.053406	-0.022125	0.080872	-0.000763	0.050049	0.099792	-0.13214	0.024109	0.013733	0.051575	-0.004883	0.081787	-0.018311	0.12405	-0.1004	-0.015564	0.04715	0.005188	-0.23102	-0.005646	-0.27771	-0.093231	0.002747	-0.01297
7.683	0.003967	-0.006104	-0.067291	-0.010376	0.039368	-0.018921	-0.10819	0.006561	0.03952	-0.020142	-0.033569	0.003662	0.073395	0.14023	0.21179	0.017242	0.014954	0.00824	-0.13016	0.047455	-0.023499	0.079803	-0.078735	-0.013885	0.03067	0.001831	-1.4322	-0.00824	-0.12207	-0.12299	-0.002594	0.000916
7.684	0.018158	0.007477	-0.06424	0.015564	0.026093	0.002594	-0.12589	0.005035	0.057831	-0.003967	0.045166	-0.000458	0.016937	0.094757	0.078888	0.012207	0.019379	0.028381	-0.14496	0.005493	-0.04303	0.043793	-0.066071	-0.03067	-0.001678	-0.013733	-0.94177	-0.004272	-0.80154	-0.069275	0.002747	-0.002441
7.685	0.029449	0.026093	-0.0383	-0.013275	0.063934	0.015106	-0.13351	0.009308	0.092468	-0.014648	-0.085602	0.008087	0.031281	0.079041	-0.075836	0.013275	0.020294	0.044098	-0.051727	0.039063	-0.095062	0.034637	-0.08255	-0.090179	-0.047607	-0.015259	-0.33905	-0.00946	-0.65262	-0.023956	-0.007324	-0.012665
7.686	0.024261	0.004578	0.087738	0.010223	0.005646	0.039673	-0.068207	0.014801	0.11078	-0.014038	-0.088806	-0.006561	0.027466	-0.018616	-0.1471	0.013733	0.02182	0.03418	-0.11444	-0.016632	-0.12756	-0.03067	-0.02655	-0.14648	-0.10239	-0.013428	-0.36438	-0.008698	0.026703	0.001526	-0.00061	-0.010681
7.687	0.01297	-0.019073	-0.021515	0.010681	-0.044861	0.087433	-0.070343	0.010681	0.11581	-0.020142	-0.14664	0.003815	0.059204	-0.10544	-0.16251	0.019073	0.025635	0.0383	0.13626	-0.054474	-0.080566	-0.038452	0.014496	-0.16312	-0.16815	-0.018768	-0.20081	-0.003967	0.11017	0.058136	0.000458	-0.006561
7.688	0.000916	-0.010834	-0.025482	-0.002136	-0.049286	0.055695	-0.084076	0.014191	0.10819	-0.010223	-0.11597	0.005341	0.01709	-0.12039	-0.075989	0.013275	0.022278	0.031281	-0.18524	-0.063324	0.059967	-0.068512	-0.10544	-0.10284	-0.18417	-0.016174	-0.26306	-0.00351	0.050659	0.097351	-0.00412	-0.011902
7.689	-0.006256	0.005798	0.009308	0.00061	-0.036316	0.067444	-0.1062	0.018005	0.11566	-0.001526	-0.044708	0.008392	-0.010376	-0.085144	0.076141	0.001373	0.018005	0.022278	-0.011139	-0.11505	0.096283	-0.19592	-0.17914	0.019989	-0.13626	-0.011597	-0.31693	-0.004272	0.022736	0.02655	0.000305	-0.002136
7.69	-0.012207	0.007477	0.051422	0.007019	-0.04776	0.048523	-0.072479	0.032043	0.062103	0.000763	0.024872	0.008087	-0.079041	-0.034027	0.055847	0.014801	0.039978	0.029297	0.13443	-0.12497	-0.017395	-0.3537	-0.027771	0.0354	-0.093384	-0.007019	-0.20371	-0.004425	0.08316	-0.003357	0.000916	-0.002136
7.691	-0.025024	0.013428	0.02121	0.007172	-0.06424	0.024109	-0.056915	0.0354	0.024414	-0.00824	0.034027	0.000458	-0.05722	-0.033417	-0.001678	0.015259	0.058746	0.037079	0.17929	-0.067749	-0.1059	-0.45563	0.051575	-0.006866	-0.091858	-0.010223	-0.032349	-0.005951	0.021362	0.023956	0.004883	-0.010986
7.692	-0.007477	0.036316	0.004578	0.013733	0.001068	0.011139	-0.066528	0.017242	0.04425	-0.007324	0.017548	0.007172	-0.027466	-0.019379	-0.016785	0.00946	0.036469	0.011902	-0.042572	0.06897	-0.035248	-0.36194	-0.084229	0.045319	0.088806	-0.00824	0.097504	-0.001984	-0.27954	0.041351	-0.004272	-0.014648
7.693	0.012512	0.065002	-0.015717	-0.001526	0.075073	-0.014496	-0.049286	-0.004883	0.13473	-0.006256	-0.009155	0.003204	0.023499	-0.031433	-0.016785	0.009918	0.02182	0.037842	0.16571	0.13825	0.089722	-0.26901	-0.06897	0.026703	0.050964	-0.010071	0.224	-0.003662	-0.4422	0.10651	0.001221	-0.020294
7.694	0.02533	0.090942	-0.016937	0.007324	0.076752	-0.031891	-0.032501	-0.014648	0.11765	0	-0.055847	0.002136	0.091705	-0.021515	0.05188	0.018463	-0.010986	0.023041	0.3569	0.15121	-0.12314	-0.09079	-0.20081	0.056458	0.006409	-0.005646	0.15243	-0.00412	-0.067444	0.15015	0.000763	-0.023346
